<svg height="512pt" viewBox="-92 0 512 512.00003" width="512pt" xmlns="http://www.w3.org/2000/svg" xmlns:xlink="http://www.w3.org/1999/xlink"><linearGradient id="a"><stop offset="0" stop-color="#45425a"/><stop offset=".5028" stop-color="#4c4d58"/><stop offset="1" stop-color="#575c55"/></linearGradient><linearGradient id="b" gradientUnits="userSpaceOnUse" x1="78.7114492178" x2="121.9025830706" xlink:href="#a" y1="396.6548025944" y2="396.6548025944"/><linearGradient id="c" gradientTransform="matrix(-1.003922 0 0 1.003922 290.031947 0)" gradientUnits="userSpaceOnUse" x1="41.5049" x2="84.5273" xlink:href="#a" y1="395.1052" y2="395.1052"/><linearGradient id="d"><stop offset="0" stop-color="#575c55"/><stop offset="1" stop-color="#45425a"/></linearGradient><linearGradient id="e" gradientUnits="userSpaceOnUse" x1="130.7226401938" x2="196.3532378062" xlink:href="#d" y1="383.138297963" y2="383.138297963"/><linearGradient id="f" gradientUnits="userSpaceOnUse" x1="196.8441556642" x2="132.12521962" y1="400.6214992008" y2="335.9025631566"><stop offset="0" stop-color="#45425a" stop-opacity="0"/><stop offset=".3474" stop-color="#353343" stop-opacity=".34902"/><stop offset="1" stop-color="#1a1a1a"/></linearGradient><linearGradient id="g" gradientUnits="userSpaceOnUse" x1="127.9862499984" x2="199.0896280016" xlink:href="#d" y1="363.963889724" y2="363.963889724"/><radialGradient id="h" cx="255.5180757776" cy="179.2962527276" gradientUnits="userSpaceOnUse" r="236.4466208138"><stop offset="0" stop-color="#32c95f"/><stop offset=".2872" stop-color="#34c95f"/><stop offset=".4487" stop-color="#3dcb60"/><stop offset=".579" stop-color="#4ace62"/><stop offset=".6928" stop-color="#5ed164"/><stop offset=".7956" stop-color="#78d667"/><stop offset=".8906" stop-color="#97dc6a"/><stop offset=".9779" stop-color="#bbe36e"/><stop offset="1" stop-color="#c6e56f"/></radialGradient><radialGradient id="i" cx="289.7903" cy="140.4206" gradientTransform="matrix(1.003922 0 0 1.67926 -92.462171 -94.83274)" gradientUnits="userSpaceOnUse" r="147.5856"><stop offset="0" stop-color="#ff4b3e"/><stop offset=".4462" stop-color="#fd4a3d"/><stop offset=".6069" stop-color="#f64939"/><stop offset=".7215" stop-color="#eb4533"/><stop offset=".8141" stop-color="#da412a"/><stop offset=".8935" stop-color="#c43a1f"/><stop offset=".9625" stop-color="#a93311"/><stop offset="1" stop-color="#972e07"/></radialGradient><radialGradient id="j" cx="428.062" cy="199.8048" gradientTransform="matrix(1.003922 0 0 1.280402 -92.462171 -55.237973)" gradientUnits="userSpaceOnUse" r="243.4533"><stop offset="0" stop-color="#00a5e8"/><stop offset=".1904" stop-color="#03a7e8"/><stop offset=".3473" stop-color="#0dacea"/><stop offset=".4924" stop-color="#1fb6ec"/><stop offset=".6303" stop-color="#37c3f0"/><stop offset=".7632" stop-color="#56d5f4"/><stop offset=".8905" stop-color="#7ce9f9"/><stop offset="1" stop-color="#a3ffff"/></radialGradient><radialGradient id="k" cx="120.9614" cy="176.8993" gradientTransform="matrix(1.003922 0 0 1.176295 -92.462171 -30.494519)" gradientUnits="userSpaceOnUse" r="238.2049"><stop offset="0" stop-color="#ffb2bc"/><stop offset=".5563" stop-color="#ffb0bb"/><stop offset=".7585" stop-color="#ffa9b6"/><stop offset=".9024" stop-color="#ff9eae"/><stop offset="1" stop-color="#ff90a4"/></radialGradient><radialGradient id="l" cx="166.7718" cy="178.5958" gradientTransform="matrix(1.003922 0 0 2.487015 -92.462171 -264.868844)" gradientUnits="userSpaceOnUse" r="130.132"><stop offset="0" stop-color="#ffe548"/><stop offset=".3824" stop-color="#ffe346"/><stop offset=".6019" stop-color="#ffdb3d"/><stop offset=".7802" stop-color="#ffce2f"/><stop offset=".9355" stop-color="#ffbc1c"/><stop offset="1" stop-color="#ffb211"/></radialGradient><linearGradient id="m"><stop offset="0" stop-color="#f2e9dc"/><stop offset=".6623" stop-color="#e3c7b3"/><stop offset="1" stop-color="#dab49d"/></linearGradient><linearGradient id="n" gradientUnits="userSpaceOnUse" x1="108.6895640598" x2="218.3863139402" xlink:href="#m" y1="482.236944466" y2="482.236944466"/><linearGradient id="o" gradientUnits="userSpaceOnUse" x1="219.206919783" x2="111.033822322" y1="511.4587044732" y2="403.2857074044"><stop offset="0" stop-color="#dab49d" stop-opacity="0"/><stop offset=".2054" stop-color="#d8b198" stop-opacity=".203922"/><stop offset=".4642" stop-color="#d3a788" stop-opacity=".462745"/><stop offset=".7504" stop-color="#ca976e" stop-opacity=".74902"/><stop offset="1" stop-color="#c08552"/></linearGradient><linearGradient id="p" gradientUnits="userSpaceOnUse" x1="104.1158962122" x2="222.9599817878" xlink:href="#m" y1="450.1881401068" y2="450.1881401068"/><linearGradient id="q" gradientUnits="userSpaceOnUse" x1="191.3393501616" x2="52.6953125488" y1="191.7225984592" y2="-123.6551809762"><stop offset=".0013" stop-color="#e7eeed" stop-opacity="0"/><stop offset=".4293" stop-color="#eef3f2" stop-opacity=".427451"/><stop offset="1" stop-color="#fff"/></linearGradient><path d="m114.261719 452.746094-35.550781-109.703125 7.640624-2.476563 35.550782 109.703125zm0 0" fill="url(#b)"/><path d="m212.8125 452.746094-7.640625-2.476563 35.554687-109.703125 7.636719 2.476563zm0 0" fill="url(#c)"/><path d="m183.109375 400.945312h-39.144531c-2.765625 0-5.167969-1.898437-5.8125-4.585937l-7.429688-31.027344h65.628906l-7.429687 31.027344c-.640625 2.6875-3.046875 4.585937-5.8125 4.585937zm0 0" fill="url(#e)"/><path d="m183.109375 400.945312c2.765625 0 5.171875-1.898437 5.816406-4.585937l7.425781-31.027344h-65.628906l1.25 5.214844 30.394532 30.398437zm0 0" fill="url(#f)"/><path d="m192.707031 370.34375h-58.339843c-3.523438 0-6.378907-2.855469-6.378907-6.378906 0-3.523438 2.855469-6.382813 6.378907-6.382813h58.339843c3.527344 0 6.382813 2.859375 6.382813 6.382813 0 3.523437-2.855469 6.378906-6.382813 6.378906zm0 0" fill="url(#g)"/><path d="m52.871094 163.539062c0-90.320312 49.546875-163.539062 110.667968-163.539062-90.320312 0-163.539062 73.21875-163.539062 163.539062 0 90.320313 73.21875 222.308594 163.539062 222.308594-61.121093 0-110.667968-131.992187-110.667968-222.308594zm0 0" fill="url(#h)"/><path d="m163.539062 0c61.117188 0 110.664063 73.21875 110.664063 163.539062 0 90.320313-49.546875 222.308594-110.664063 222.308594 90.316407 0 163.535157-131.992187 163.535157-222.308594 0-90.320312-73.21875-163.539062-163.535157-163.539062zm0 0" fill="url(#i)"/><path d="m129.53125 163.539062c0-90.320312 15.226562-163.539062 34.007812-163.539062-61.121093 0-110.667968 73.21875-110.667968 163.539062 0 90.320313 49.546875 222.308594 110.667968 222.308594-18.78125 0-34.007812-131.992187-34.007812-222.308594zm0 0" fill="url(#j)"/><path d="m274.203125 163.539062c0-90.320312-49.546875-163.539062-110.664063-163.539062 18.78125 0 34.003907 73.21875 34.003907 163.539062 0 90.320313-15.222657 222.308594-34.003907 222.308594 61.117188 0 110.664063-131.992187 110.664063-222.308594zm0 0" fill="url(#k)"/><path d="m197.542969 163.539062c0-90.320312-15.222657-163.539062-34.003907-163.539062s-34.007812 73.21875-34.007812 163.539062c0 90.320313 15.226562 222.308594 34.007812 222.308594s34.003907-131.992187 34.003907-222.308594zm0 0" fill="url(#l)"/><path d="m196.25 512h-65.425781c-4.625 0-8.644531-3.171875-9.71875-7.664062l-12.417969-51.863282h109.699219l-12.417969 51.863282c-1.074219 4.492187-5.09375 7.664062-9.71875 7.664062zm0 0" fill="url(#n)"/><path d="m196.25 512c4.625 0 8.644531-3.171875 9.71875-7.664062l12.417969-51.863282h-109.695313l2.085938 8.722656 50.808594 50.804688zm0 0" fill="url(#o)"/><path d="m212.292969 460.851562h-97.511719c-5.890625 0-10.664062-4.773437-10.664062-10.664062s4.773437-10.664062 10.664062-10.664062h97.511719c5.890625 0 10.667969 4.773437 10.667969 10.664062s-4.777344 10.664062-10.667969 10.664062zm0 0" fill="url(#p)"/><path d="m299.007812 128.480469c0-64.796875-60.652343-117.324219-135.46875-117.324219-74.820312 0-135.472656 52.527344-135.472656 117.324219 0 64.800781 60.652344 117.328125 135.472656 117.328125 74.816407 0 135.46875-52.527344 135.46875-117.328125zm0 0" fill="url(#q)"/></svg>